<svg width="1680" height="368" viewBox="0 0 1680 368" fill="none" xmlns="http://www.w3.org/2000/svg">
<path fill-rule="evenodd" clip-rule="evenodd" d="M708.359 74.7339C865.306 74.1461 1016.31 58.6189 1174 41.9444C1178.54 41.465 1183.08 40.9845 1187.62 40.5035L1187.75 40.4899C1341.27 24.2451 1501.45 7.29454 1679.94 2.24989L1679.9 0.750488C1501.35 5.79681 1341.12 22.7527 1187.61 38.9966C1183.02 39.4827 1178.43 39.9682 1173.85 40.4527C1016.14 57.1281 865.214 72.6464 708.353 73.2339C557.048 73.8006 430.987 59.4747 317.246 43.6444C292.704 40.2285 268.732 36.7421 245.203 33.3201C159.703 20.8852 80.0421 9.29949 0.0400085 5.03233L-0.0398865 6.5302C79.8871 10.7934 159.46 22.366 244.948 34.799C268.486 38.2223 292.473 41.7109 317.04 45.13C430.811 60.9648 556.952 75.301 708.359 74.7339ZM520.895 322.984C694.772 322.379 861.871 305.955 1037.02 288.74L1037.16 288.726L1037.49 288.693L1037.67 288.675C1048.4 287.621 1059.17 286.563 1069.96 285.505C1257.2 267.17 1454.59 249 1680 249V247C1454.48 247 1257.01 265.179 1069.77 283.515C1058.79 284.59 1047.85 285.665 1036.94 286.738L1036.84 286.747C861.678 303.964 694.667 320.379 520.889 320.984C322.837 321.673 164.97 300.347 22.2525 281.067C14.8398 280.066 7.46791 279.07 0.133423 278.083L-0.133301 280.065C7.16561 281.047 14.5019 282.039 21.8789 283.035L22.0022 283.052C164.716 302.331 322.703 323.673 520.895 322.984ZM1020.17 331.909C814.209 350.192 616.786 367.087 411.663 367.732C257.082 368.218 122.468 358.812 -0.0755177 346.4L0.0756397 344.908C122.583 357.316 257.143 366.718 411.658 366.232C616.708 365.587 814.071 348.698 1020.04 330.415L1029.27 329.596L1036.99 328.909L1043.94 328.292C1242.61 310.633 1449.81 292.216 1679.98 286.245L1680.02 287.744C1449.9 293.714 1242.74 312.128 1044.06 329.787L1044.06 329.787C1036.08 330.496 1028.12 331.204 1020.17 331.909ZM0.00138283 85.3019C126.951 85.1677 249.886 99.5432 384.646 115.302L384.647 115.302C399.704 117.062 414.909 118.84 430.283 120.617C583.241 138.296 752.931 155.86 960.975 155.234C1161.84 154.629 1354.89 138.204 1557.23 120.987L1557.24 120.987C1597.77 117.538 1638.68 114.057 1680.1 110.666L1679.9 108.174C1638.46 111.567 1597.55 115.048 1557 118.497L1556.99 118.499C1354.65 135.714 1161.72 152.129 960.967 152.734C753.073 153.36 583.501 135.809 430.57 118.134C415.2 116.357 399.997 114.58 384.94 112.819L384.925 112.817C250.189 97.061 127.104 82.6675 -0.00126076 82.8019L0.00138283 85.3019Z" fill="#F4F4F2"/>
</svg>
