<?xml version="1.0" encoding="UTF-8"?> <svg xmlns="http://www.w3.org/2000/svg" width="1650" height="885" viewBox="0 0 1650 885" fill="none"> <path d="M186.24 43.8184C184.047 43.9628 184.444 42.7212 183.12 44.0013C181.154 44.6614 179.078 44.139 177.484 44.0607C175.752 43.387 175.834 41.7096 174.609 40.9768C171.128 39.965 167.474 39.0287 163.42 39.418C160.569 35.8309 155.152 36.5736 152.134 32.9782C149.877 32.6991 147.793 32.3445 145.622 33.7512C144.402 34.6161 142.477 34.4374 141.26 33.5368C139.8 32.4562 138.303 32.1304 136.629 31.9641C134.369 31.7689 133.03 29.9376 131.662 28.6933C129.602 27.8354 127.896 28.3401 126.316 29.6917C124.579 29.1019 122.926 28.5163 121.186 28.0104C120.691 27.8179 120.024 27.701 119.516 27.7602C112.804 29.1959 105.976 32.9801 99.3129 33.4094C97.2037 33.558 95.2031 33.2074 93.0733 33.7754C90.2643 34.4781 87.4444 37.114 84.6972 36.5587C83.4474 36.3291 81.7854 44.4868 80.4558 44.1693C79.65 43.4571 74.0336 51.6727 73.1481 50.8725C69.2184 50.4272 69.3066 55.4761 65.4581 56.8003C60.7544 58.4189 55.7592 57.4167 51.6453 57.2986C46.5317 55.2818 42.0895 63.5551 36.47 63.279L-0.000151408 805.472L1610.28 884.598L1646.75 142.405C1646.75 142.405 1639.52 142.47 1636.73 144.435C1635.43 145.296 1632.5 146.582 1630.34 147.905C1626.4 149.309 1624.7 153.176 1622.94 153.006C1618.92 152.641 1616.31 157.893 1612.33 156.856C1609.92 156.234 1606.89 161.298 1604.35 161.761C1603.08 161.951 1602.02 159.545 1600.77 159.231C1596.71 158.191 1596.42 162.38 1592.71 164.216C1589.61 162.214 1585.38 167.892 1581.85 166.121C1581.53 165.937 1581.02 165.912 1580.6 166.059C1576.68 167.128 1573.01 164.845 1569.19 163.817C1567.36 163.307 1565.44 166.575 1563.57 166.988C1561.37 165.535 1552.48 165.014 1550.82 162.998C1549.21 163.172 1547.68 163.433 1546.17 163.443C1544.49 163.444 1542.82 163.278 1541.47 163.212C1534.33 157.984 1526.34 156.415 1517.66 154.979C1516.22 153.647 1514.11 152.03 1511.35 151.727C1509.93 151.573 1509.19 152.966 1508.09 153.08C1505.45 151.941 1505.82 149.689 1505.74 147.92C1505.04 146.624 1504.31 146.168 1503.12 146.446C1501.49 147.038 1501.38 149.303 1499.59 149.803C1496.91 149.672 1497.79 147.109 1497.18 145.901C1493.84 143.552 1492.51 146.681 1490.18 147.996C1486.87 148.506 1483.44 146.572 1479.82 146.73C1476.19 146.888 1472.6 146.459 1469.24 146.294C1465.49 143.924 1463.25 139.946 1458.83 139.141C1457.42 138.903 1456.04 139.592 1454.75 140.033C1451.84 141.068 1449.19 140.265 1446.74 138.799C1445.19 137.882 1443.73 136.885 1441.9 136.459C1439.9 136.025 1438.62 134.617 1437.54 132.798C1436.21 130.631 1434.83 128.04 1431.1 128.698C1430.3 129.5 1429.33 130.461 1428.27 131.418C1425.48 131.785 1422.71 131.733 1420.18 130.095C1418.39 128.998 1416.34 129.654 1414.92 129.332C1412.98 129.573 1412.31 131.138 1410.95 131.491C1405.03 132.209 1401.28 128.073 1397.48 125.028C1395.26 125.76 1396.33 127.914 1394.52 128.834C1390.18 128.033 1385.12 128.456 1382.4 123.867C1377.84 122.55 1376.71 126.698 1374.2 128.172C1372.36 128.082 1370.9 127.001 1369.21 127.086C1365.58 127.328 1362.26 126.493 1359.51 124.256C1355.43 125.232 1351.45 125.793 1347.97 128.144C1345.63 129.711 1342.56 128.887 1340.12 130.533C1339.25 131.079 1338.14 131.445 1337.27 132.158C1336.83 132.557 1336.46 133.128 1335.95 133.187C1331.56 133.644 1329.27 137.399 1325.96 139.842C1323.59 140.062 1321.42 139.871 1319.01 139.165C1315.45 138.149 1311.9 138.563 1308.53 140.415C1306.45 141.574 1304.01 141.706 1301.87 142.442C1294.18 144.923 1287.43 142.069 1280.38 140.041C1279.14 139.643 1277.98 139.25 1276.46 139.428C1275.5 140.053 1274.37 140.838 1273.42 141.464C1271.39 141.701 1269.83 140.868 1268.44 140.127C1265.08 138.364 1261.69 137.188 1257.94 136.5C1255.11 135.94 1251.78 135.188 1249.86 133.244C1248.87 131.178 1249.97 129.298 1248.62 127.551C1247.08 126.55 1245.21 126.794 1243.36 126.955C1242.41 130.776 1242.41 130.776 1246.13 135.583C1245.83 136.577 1245.14 136.964 1244.23 136.499C1243 135.85 1241.87 135.038 1240.57 134.133C1238.55 134.034 1236.29 133.923 1234.44 133.832C1230.97 132.652 1232.1 128.42 1230.37 127.83C1225.77 125.503 1223.7 128.344 1220.78 129.629C1217.71 128.806 1214.8 131.438 1211.21 131.093C1210.25 131.802 1209.2 132.508 1208.24 133.217C1206.64 133.307 1205.11 133.568 1203.73 132.659C1201.29 131.026 1198.65 129.971 1195.83 129.076C1191.61 127.86 1188.37 125.262 1185.16 122.246C1183.15 120.381 1181.52 117.443 1178.08 117.442C1177.12 114.621 1174.22 113.889 1172.56 111.622C1167.86 111.475 1163.67 109.587 1159.21 107.855C1154.77 111 1149.79 109.578 1144.46 108.56C1143.27 108.838 1141.73 109.35 1140.81 110.987C1140.08 112.296 1138.61 112.98 1137.27 112.915C1132.82 112.78 1128.35 113.065 1123.54 111.652C1120.77 111.683 1117.91 113.476 1115.21 113.596C1112.24 112.441 1112.39 109.422 1110.21 107.465C1107.31 108.416 1103.91 107.492 1100.47 109.004C1096 111.055 1091.06 110.56 1086.51 109.075C1083.86 108.188 1081.89 105.653 1079.21 103.588C1077.1 103.736 1074.77 101.52 1072.27 102.91C1070.59 102.912 1070.08 101.205 1069.57 101.265C1067.98 101.27 1067.37 101.577 1066.84 102.055C1062.9 105.392 1058.57 104.507 1054.27 102.951C1049.89 101.39 1045.92 98.3368 1040.42 99.1593C1038.93 100.431 1036.82 100.496 1034.47 100.381C1030.7 100.111 1027.02 99.7621 1023.34 101.178C1020.94 102.07 1018.74 100.7 1016.7 99.4229C1016.05 98.9706 1015.49 98.3546 1015.01 97.9105C1013.92 97.6892 1013.16 97.736 1012.31 97.9464C1009.42 98.645 1006.49 98.333 1003.67 97.6058C998.193 96.1596 992.727 94.4617 987.19 92.5081C986.472 91.7161 985.591 90.8321 984.55 89.772C981.849 89.9756 980.459 87.4692 978.332 86.2716C976.041 84.982 975.423 82.1771 973.052 80.7995C968.069 79.5457 964.01 80.0189 960.085 84.6183C957.141 84.6418 957.141 84.6418 954.556 82.497C953.877 82.6317 953.202 82.6826 952.523 82.8174C951.931 82.8724 951.428 82.8477 950.506 82.8024C950.826 84.836 941.797 83.8037 941.662 83.1245C941.526 80.7637 940.376 80.2027 938.85 80.464C936.27 79.9169 935.85 78.2147 936.284 76.2183C934.92 74.8901 933.302 75.3151 931.796 75.157C930.374 75.0031 929.028 75.021 927.77 74.9592C923.252 77.932 920.627 78.3075 912.837 74.3094C911.746 74.2558 911.504 75.7573 909.831 75.591C908.837 75.2899 907.456 74.2973 906.587 73.1616C904.056 69.9264 900.822 69.0108 896.947 69.1567C896.272 69.2076 895.609 69.0069 895.026 68.8941C893.994 67.6663 894.24 66.081 892.947 65.0086C891.471 64.2634 890.21 65.9671 888.884 65.5656C887.568 66.678 886.517 67.5512 885.205 68.5797C883.039 66.4555 879.789 65.8754 878.516 62.702C877.19 62.3006 875.865 61.8991 874.287 61.4853C872.753 61.9144 871.496 63.5342 869.228 63.5068C867.473 61.5709 865.46 61.472 862.782 62.9378C860.279 64.2441 857.131 65.0142 854.998 62.219C853.752 61.9056 852.893 62.2837 851.95 62.6578C851.091 63.0359 850.055 63.5736 849.137 63.4443C845.048 62.823 841.119 64.0593 837.014 63.7735C835.923 63.7199 834.678 63.4065 833.718 64.116C831.191 65.9255 828.255 65.7813 825.107 66.5514C821.662 64.7847 817.974 62.8379 814.366 60.9791C812.601 60.9765 812.653 63.3331 811.131 63.5105C809.685 63.8598 808.757 62.2168 807.323 62.3145C805.805 62.4081 805.135 64.0567 803.349 64.4734C797.705 64.7005 791.194 62.0265 786.053 67.4069C785.143 67.11 785.113 66.0155 784.215 65.4669C782.509 65.9716 780.71 66.6399 779.135 67.9077C776.507 70.0486 773.555 70.2398 770.208 69.9072C764.438 69.2874 758.595 68.4118 752.654 69.5491C751.468 69.743 750.122 69.761 748.876 69.4475C744.388 68.3862 739.793 69.5056 735.288 68.7799C734.492 69.5815 733.788 70.2195 733.076 71.0253C730.46 71.233 727.843 71.4407 725.485 69.8115C724.344 69.0828 723.174 68.9412 721.819 69.1269C718.012 69.6124 714.239 71.1086 710.371 69.4051C706.615 70.5658 702.878 69.6255 699.095 69.6078C695.9 69.6189 692.629 69.4582 689.679 67.8839C688.287 67.1429 686.672 67.484 685.171 67.242C682.08 66.8379 679.077 66.354 677.104 63.7348C675.027 63.2124 673.325 63.6332 671.359 64.2933C668.877 65.1802 666.144 66.0548 663.266 64.7364C662.196 64.2634 660.762 64.3611 659.504 64.2993C652.794 63.9696 646.084 63.6399 639.71 63.3266C634.495 59.9596 630.855 55.3247 625.9 51.8022C624.046 51.8793 622.154 51.0297 620.262 50.18C618.945 49.6109 617.531 49.2892 616.244 49.8145C614.438 50.6505 612.425 50.5516 610.631 51.136C606.535 52.364 603.769 50.4626 601.461 47.8269C600.105 46.331 598.317 45.0661 597.737 43.1879C594.532 41.6852 591.745 43.6501 588.906 43.2584C587.766 44.2113 586.626 45.1642 585.31 46.2766C580.634 45.6264 575.727 44.5445 570.753 44.8046C567.937 42.2281 565.301 39.4081 561.207 42.3177C560.716 42.0413 559.81 41.6605 559.822 41.4089C560.188 37.3912 556.61 36.6269 554.379 35.8446C551.9 34.9661 549.089 33.9873 545.957 34.4219C543.681 36.2438 540.831 37.7853 537.372 38.0357C535.551 37.4417 533.559 36.9235 532.132 35.1718C530.301 33.0641 527.593 33.4355 524.917 33.1358C521.404 29.3479 516.458 27.3393 512.358 23.5226C510.222 22.4928 508.475 23.8362 506.715 25.4312C503.444 25.2705 500.375 26.1286 497.991 28.4497C496.313 28.3673 494.804 28.2931 493.21 28.2148C489.962 25.8692 485.773 25.5792 482.245 23.8084C480.493 25.2357 481.288 27.8812 479.469 28.9688C477.826 29.897 476.67 31.1854 475.744 32.9055C473.119 33.281 470.957 34.5199 469.105 36.2786C464.416 35.88 459.892 37.2552 455.304 36.5253C454.386 36.396 453.031 36.5818 452.469 36.0497C450.219 33.9213 447.914 34.6487 445.364 35.1961C442.815 35.7434 440.195 36.035 437.57 36.4105C437.146 36.4738 436.635 36.6168 436.308 36.4326C430.456 34.0431 424.42 37.1095 419.701 35.6165C413.676 36.7497 409.8 40.3427 404.71 41.2697C403.57 42.2226 403.152 43.8835 401.182 44.6274C397.332 44.2701 393.677 46.7809 389.841 47.8536C386.078 45.7349 383.442 42.915 380.898 39.9314C379.744 39.4544 378.587 39.0612 377.433 38.5841C374.821 38.7079 372.511 39.5193 370.826 41.2862C365.17 41.7649 359.439 43.7534 355.077 38.4104C353.044 38.7309 351.426 39.1558 349.529 38.39C347.801 37.6325 345.704 37.5294 343.81 38.4452C339.5 40.5876 335.022 41.0402 330.342 40.4739C329.256 40.3364 328.161 40.3667 327.071 40.3132C323.827 43.0123 320.445 45.1162 316.899 47.1279C314.393 48.5181 312.011 49.0737 309.096 48.5101C306.893 47.1407 305.239 44.8735 303.573 42.8578C302.092 42.1965 300.658 42.2942 299.056 42.3837C297.288 44.1465 294.483 44.7653 293.441 47.1523C292.142 47.9292 290.98 47.6199 289.885 47.6502C288.879 47.6007 287.88 47.3835 286.945 47.5898C282.531 48.4658 278.421 48.2639 274.887 44.8954C274.165 44.1873 273.062 44.3853 272.06 44.252C268.294 43.8988 264.579 44.2207 260.854 43.0288C258.87 42.3427 256.719 43.33 254.98 44.5057C254.196 45.0557 253.488 45.7776 252.701 46.4115C250.827 46.908 249.086 46.402 247.148 46.475C246.275 45.4232 245.402 44.3714 244.613 43.3237C242.805 42.4782 240.751 43.218 239.487 41.5584C237.739 42.9019 236.344 43.9263 234.478 44.255C232.952 44.5163 231.648 45.3771 230.58 46.5857C228.347 49.2505 225.546 49.7855 222.153 48.6939C220.201 50.7839 216.993 51.0466 214.869 53.2123C209.89 51.8747 204.497 52.1142 200.116 48.8722C198.333 47.5234 196.023 48.3347 193.947 47.8123C192.235 46.7193 190.527 45.5424 188.975 44.6253C188.006 43.821 187.071 44.0273 186.24 43.8184Z" ></path> </svg> 